<svg width="512" height="512" xmlns="http://www.w3.org/2000/svg" version="1.1" enable-background="new 0 0 1773 1182">

 <g>
  <title>Layer 1</title>
  <path stroke="null" stroke-width="0.375" fill="#005430" d="m-24.00003,519.00002l548.00005,0l0,-530.00004l-548.00005,0l0,530.00004z" id="green"/>
  <g stroke="null" transform="translate(-142 -6) scale(0.375 0.375)" id="white">
   <g stroke="null" id="shahada">
    <g stroke="null" id="svg_1" transform="matrix(5.64252 0 0 -5.2553 1527 583.29)">
     <path stroke="null" id="svg_2" fill="#fff" d="m0,0c-0.023,4.162 -1.516,15.373 -1.895,19.134c-0.378,3.761 -0.759,7.173 -0.667,7.972c0.09,0.771 1.187,-1.072 1.767,-1.221c0.3,0.065 0.166,1.229 -0.379,2.223c-0.369,0.675 -1.627,3.199 -2.39,4.678c-0.359,0.7 -0.439,1.106 -0.612,1.192c-0.172,0.086 -1.561,-2.945 -1.409,-3.281c0.379,-0.616 0.639,-0.91 0.698,-1.998c0.06,-1.088 0.58,-8.856 1.243,-14.744c0.499,-4.442 1.594,-14.012 1.633,-19.962c0.011,-1.941 -0.188,-3.791 -0.427,-4.564c-0.613,-1.214 -1.571,-2.309 -5.139,-4.567c-4.011,-2.539 -9.362,-4.652 -11.662,-6.066c-1.43,-0.882 -0.956,-1 0.289,-0.614c1.242,0.386 7.664,1.623 10.784,3.049c2.929,1.342 4.83,3.587 6.273,6.862c1.782,4.049 1.918,7.485 1.893,11.907"/>
    </g>
    <g stroke="null" id="svg_3" transform="matrix(5.64252 0 0 -5.2553 1456.94 417.143)">
     <path stroke="null" id="svg_4" fill="#fff" d="m0,0c0.31,0.13 2.877,0.273 3.568,0.119c-0.454,-0.702 -3.532,-2.256 -3.545,-2.541c0.084,-0.192 2.126,0.355 2.77,0.659c0.421,0.274 0.702,0.698 1.014,1.05c0.736,0.916 1.609,2.615 1.389,2.828c-0.357,0.344 -3.856,0.13 -4.317,0.059c-0.309,-0.048 -1.093,-1.568 -1.237,-1.958c-0.141,-0.39 0.048,-0.346 0.358,-0.216"/>
    </g>
    <g stroke="null" id="svg_5" transform="matrix(5.64252 0 0 -5.2553 1486.52 546.785)">
     <path stroke="null" id="svg_6" fill="#fff" d="m0,0c0.535,1.96 0.667,4.338 -0.061,6.841c-0.748,2.577 -2.606,4.148 -3.946,4.953l-0.239,-2.481s1.879,-1.01 3.164,-3.553c0.814,-1.613 1.153,-3.894 0.51,-6.437c-0.107,-0.631 0.31,-0.283 0.572,0.677"/>
    </g>
    <g stroke="null" id="svg_7" transform="matrix(5.64252 0 0 -5.2553 1374.36 612.17)">
     <path stroke="null" id="svg_8" fill="#fff" d="m0,0c0.482,1.765 0.6,3.906 -0.054,6.16c-0.674,2.321 -2.347,3.736 -3.554,4.458l-0.216,-2.233s1.692,-0.91 2.849,-3.198c0.734,-1.451 1.038,-3.508 0.461,-5.797c-0.096,-0.566 0.279,-0.254 0.514,0.61"/>
    </g>
    <g stroke="null" id="svg_9" transform="matrix(5.64252 0 0 -5.2553 984.938 434.637)">
     <path stroke="null" id="svg_10" fill="#fff" d="m0,0c0.774,-1.531 1.095,-3.699 0.486,-6.114c-0.102,-0.599 0.292,-0.27 0.543,0.642c0.506,1.86 0.632,4.12 -0.06,6.499c-0.711,2.449 -2.476,3.94 -3.749,4.703l-0.225,-2.356s1.785,-0.959 3.005,-3.374"/>
    </g>
    <g stroke="null" id="svg_11" transform="matrix(5.64252 0 0 -5.2553 722.055 438.801)">
     <path stroke="null" id="svg_12" fill="#fff" d="m0,0c0.65,-1.648 0.694,-3.873 -0.356,-6.217c-0.204,-0.589 0.293,-0.31 0.71,0.571c0.852,1.801 1.33,4.055 0.898,6.545c-0.443,2.56 -2.221,4.305 -3.552,5.25l-0.604,-2.339s1.879,-1.212 2.904,-3.81"/>
    </g>
    <g stroke="null" id="svg_13" transform="matrix(5.64252 0 0 -5.2553 794.724 632.387)">
     <path stroke="null" id="svg_14" fill="#fff" d="m0,0c0.826,1.658 1.17,2.774 1.537,4.738c0.321,1.728 0.342,3.724 0.226,5.756c2.472,1.09 5.418,2.899 6.408,3.032c-0.677,-2.514 0.939,-5.227 4.203,-4.873c0.25,-2.843 0.464,-5.34 0.594,-6.821c0.266,-3.036 0.226,-6.862 0.218,-7.527c-0.011,-0.668 0.436,-0.542 0.895,0.946c0.612,1.992 0.801,7.194 0.579,10.634c-0.053,0.86 -0.143,2.021 -0.252,3.344c2.116,1.059 2.468,3.103 3.259,3.974c0.714,-2.705 4.644,-3.072 5.857,-2.493c1.504,0.719 1.997,2.012 2.384,5.013c0.388,3 -0.742,4.208 -1.146,4.535c-0.04,-0.363 -1.024,-3.889 -1.024,-3.889s0.933,-1.066 0.98,-1.59c-0.76,-0.744 -2.363,-0.79 -3.709,-0.316c-1.347,0.474 -1.76,1.346 -1.68,1.931c0.078,0.587 0.585,1.121 0.602,1.836c0.015,0.715 -0.302,0.508 -0.841,-0.125c-0.539,-0.634 -0.887,-1.204 -1.633,-2.565c-0.61,-1.113 -1.6,-2.471 -3.346,-2.859c-0.288,3.268 -0.617,6.745 -0.837,8.929c-0.115,1.153 -1.264,11.117 -1.346,12.232c-0.071,0.971 -0.204,2.116 -0.182,2.654c0.022,0.428 0.27,0.258 0.654,-0.19c0.385,-0.447 1.058,-1.227 1.174,-1.166c0.392,0.208 -0.009,1.503 -0.522,2.663c-0.512,1.163 -2.26,5.751 -2.627,5.94c-0.189,0.096 -1.369,-2.728 -1.439,-3.284c0.183,-0.348 0.661,-0.895 0.678,-2.451c0.006,-0.434 0.264,-4.526 0.622,-8.395c0.313,-3.417 0.728,-6.659 0.768,-7.036c0.285,-2.608 0.631,-6.284 0.96,-9.898c-1.895,0.39 -2.399,1.742 -2.357,2.513c0.048,0.87 0.411,1.852 0.237,2.074c-0.365,0.237 -2.537,-1.076 -5.566,-2.487c-0.852,-0.396 -1.812,-0.821 -2.825,-1.224c-0.264,2.463 -0.612,4.805 -0.752,6.596l-0.017,0.199c1.992,0.139 3.623,1.227 4.365,2.263c0.927,1.295 1.575,3.96 1.638,6.002c0.063,2.044 -1.462,5.781 -1.825,6.969c-0.366,1.189 -0.555,2.013 -0.587,2.424c-0.033,0.411 0.824,-0.476 1.363,-0.65c0.365,-0.079 0.239,0.776 -0.207,1.363c-0.443,0.585 -2.839,4.518 -3.007,4.242c-0.103,-0.162 -1.063,-3.055 -1.126,-3.498c0.378,-0.27 0.82,-1.014 0.851,-1.727c0.032,-0.713 0.56,-3.848 1.145,-5.59c0.587,-1.742 1.837,-5.084 1.916,-6.003c-0.893,-0.681 -2.926,-1.834 -4.937,-1.765c-0.344,3.048 -0.78,6.588 -1.013,9.095c-0.09,0.969 -0.096,2.003 -0.082,2.543c0.011,0.428 0.296,0.369 0.688,-0.071c0.394,-0.44 0.998,-1.08 1.122,-1.034c0.27,0.097 0.036,1.068 -0.499,2.221s-2.661,6.03 -3.034,6.212c-0.189,0.093 -1.141,-2.646 -1.201,-3.205c0.19,-0.346 0.677,-0.881 0.725,-2.437c0.038,-1.239 0.596,-7.311 1.074,-12.659c-1.99,1.113 -2.669,2.704 -2.915,5.375c-0.172,1.862 -0.189,5.292 -0.803,8.161c-0.346,1.622 -1.075,3.27 -1.939,4.145c-0.206,-0.539 -1.126,-3.848 -1.126,-3.848c0.3,-0.95 1.233,-4.149 1.201,-6.921c-0.031,-2.772 -0.233,-5.482 -3.105,-7.349c-2.87,-1.868 -7.175,-1.125 -8.238,1.789c-1.063,2.916 1.3,10.227 1.269,11.953c-0.032,1.726 -0.317,1.964 -0.984,1.679c-0.666,-0.285 -2.029,-1.949 -3.203,-4.656c-1.174,-2.709 -1.696,-6.064 -2.363,-8.345c-0.665,-2.281 -1.73,-4.592 -3.378,-4.464c-1.648,0.126 -2.535,1.757 -3.042,4.116c-0.508,2.361 -0.197,5.47 -0.059,6.267c0.344,1.996 -0.453,1.587 -0.941,-1.547c-0.302,-1.933 -0.602,-5.02 0.461,-8.251c1.061,-3.231 2.87,-4.436 4.455,-4.023c1.586,0.411 2.98,4.434 3.472,6.241c0.491,1.804 2.688,9.817 3.932,10.211c0.174,-0.903 -0.967,-3.814 -1.332,-7.219c-0.364,-3.405 0.485,-7.979 4.481,-8.77c3.996,-0.792 6.707,2.011 7.69,3.957c0.984,1.949 1.443,3.992 1.554,5.021c0.128,-2.612 1.776,-6.691 4.977,-7.854l0.33,-0.103c0.197,-2.138 0.518,-4.929 0.813,-7.86c-0.623,-0.208 -1.252,-0.396 -1.878,-0.558c-0.08,0.281 -0.168,0.556 -0.275,0.809c-0.977,2.273 -2.594,4.368 -4.835,4.223c-2.289,-0.147 -4.785,-3.451 -4.676,-5.864c0.072,-1.623 0.898,-2.955 3.902,-3.296c1.372,-0.157 2.829,0.008 4.334,0.363c0.212,-0.671 0.346,-1.338 0.361,-1.946c-0.952,-1.204 -8.829,-7.63 -14.727,-8.248c-5.898,-0.617 -7.697,2.727 -7.756,6.084c-0.044,2.554 1.376,5.103 2.374,6.867c1.428,1.13 2.6,2.543 3.34,3.633c0.201,-0.134 0.392,-0.258 0.574,-0.373c0.705,-0.443 0.986,-1.105 0.986,-1.105c0.13,0.216 0.736,1.396 0.499,1.973c-0.109,0.142 -0.642,0.497 -1.283,0.918c0.673,1.814 0.664,3.625 -0.208,4.028c-0.975,0.449 -2.248,-0.799 -2.797,-1.56c-0.285,-0.396 -0.394,-0.845 -0.396,-1.222c-0.004,-0.485 0.207,-0.923 0.729,-1.313c0.52,-0.384 1.003,-0.732 1.457,-1.046c-1.289,-1.464 -4.335,-3.609 -6.199,-4.869c-0.069,0.185 -0.342,-0.01 -0.709,-0.478l-0.505,-0.337c-1.487,-0.984 -5.053,-3.145 -5.754,-3.674c-0.702,-0.53 -0.262,-0.434 0,-0.316c0.495,0.289 1.145,0.639 1.875,1.025c1.034,0.547 2.237,1.166 3.413,1.787c-0.348,-0.638 -0.708,-1.384 -1.027,-2.198c-1.403,-3.583 -3.671,-11.009 1.235,-15.477c4.694,-4.277 12.762,-2.65 19.453,1.795c6.692,4.446 8.137,6.009 9.183,7.625m-21.816,17.664c-0.232,0.185 -0.264,0.432 -0.075,0.604c0.241,0.222 0.549,0.432 0.899,0.503c0.742,0.149 1.038,-0.773 0.74,-2.209c-0.564,0.373 -1.144,0.765 -1.564,1.102m15.348,-6.057c-3.407,-0.017 -3.564,0.652 -3.5,1.08c0.063,0.426 1.124,1.595 2.47,0.824c0.569,-0.327 1.21,-1.011 1.803,-1.87c-0.262,-0.021 -0.52,-0.032 -0.773,-0.034m-10.435,-19.379c-6.437,-1.9 -12.716,1.044 -13.096,6.873c-0.291,4.451 1.21,7.805 2.178,9.695c0.923,0.494 1.795,0.974 2.516,1.404c-1.685,-2.935 -2.671,-6.866 -2.012,-10.196c0.746,-3.772 3.78,-6.059 8.917,-5.321c5.086,0.729 11.963,5.961 13.913,7.934c0.594,0.712 0.986,1.354 1.52,2.662c0.22,0.537 0.529,1.246 0.644,2.047c0.075,0.522 0.115,1.08 0.124,1.648c0.597,0.193 1.197,0.409 1.801,0.641c0.205,-2.388 0.356,-4.742 0.365,-6.778c-3.169,-4.02 -10.433,-8.708 -16.87,-10.609"/>
    </g>
    <g stroke="null" id="svg_15" transform="matrix(5.64252 0 0 -5.2553 1334.65 592.901)">
     <path stroke="null" id="svg_16" fill="#fff" d="m0,0c-0.218,3.9 -0.744,10.959 -1.038,14.54c-0.26,3.187 -0.771,7.555 -1.145,11.4c-0.094,0.968 -0.104,1.895 -0.094,2.434c0.011,0.426 0.405,0.262 0.799,-0.176s1.01,-0.988 1.126,-0.921c0.385,0.216 -0.076,1.284 -0.617,2.433c-0.541,1.151 -2.686,5.912 -3.059,6.093c-0.19,0.092 -1.195,-2.76 -1.253,-3.319c0.192,-0.344 0.683,-0.877 0.736,-2.433c0.054,-1.557 0.781,-8.715 1.306,-14.504c0.364,-4.024 0.834,-10.59 1.176,-15.541c-0.017,-0.008 0.323,-4.707 0.36,-5.235c0.21,-3.04 0.101,-6.865 0.08,-7.529c-0.023,-0.667 0.428,-0.551 0.912,0.929c0.493,1.511 0.774,4.885 0.812,7.931l-0.101,3.898z"/>
    </g>
    <g stroke="null" id="svg_17" transform="matrix(5.64252 0 0 -5.2553 1231.52 521.151)">
     <path stroke="null" id="svg_18" fill="#fff" d="m0,0c-0.66,-0.218 -1.696,0.537 -1.617,2.12c0.072,1.43 0.638,2.769 0.856,3.614c0.3,1.166 0.302,2.29 0.048,1.653c-0.572,-1.424 -1.637,-4.177 -1.857,-6.045c-0.221,-1.868 0.339,-3.072 1.1,-3.483c0.948,-0.515 1.631,0.302 2.093,1.506c0.444,1.153 0.36,2.499 0.052,2.182c-0.258,-0.331 -0.354,-1.44 -0.675,-1.547"/>
    </g>
    <g stroke="null" id="svg_19" transform="matrix(5.64252 0 0 -5.2553 1177.99 551.392)">
     <path stroke="null" id="svg_20" fill="#fff" d="m0,0c0.35,1.006 0.432,1.992 0.163,1.451c-0.607,-1.212 -1.744,-3.554 -2.077,-5.181c-0.332,-1.627 0.071,-2.728 0.711,-3.145c0.798,-0.522 1.455,0.147 1.952,1.172c0.475,0.981 0.499,2.172 0.207,1.914c-0.252,-0.272 -0.419,-1.239 -0.707,-1.31c-0.599,-0.143 -1.453,0.597 -1.268,1.985c0.168,1.25 0.765,2.387 1.019,3.114"/>
    </g>
    <g stroke="null" id="svg_21" transform="matrix(5.64252 0 0 -5.2553 1022.1 662.924)">
     <path stroke="null" id="svg_22" fill="#fff" d="m0,0c0.585,1.027 0.876,2.092 0.47,1.554c-0.906,-1.202 -2.621,-3.535 -3.313,-5.246c-0.69,-1.711 -0.47,-2.996 0.145,-3.581c0.767,-0.73 1.622,-0.13 2.369,0.889c0.717,0.977 0.985,2.273 0.61,2.052c-0.329,-0.249 -0.705,-1.272 -1.036,-1.291c-0.681,-0.036 -1.467,0.945 -0.985,2.423c0.436,1.334 1.317,2.456 1.74,3.2"/>
    </g>
    <g stroke="null" id="svg_23" transform="matrix(5.64252 0 0 -5.2553 1295.41 505.415)">
     <path stroke="null" id="svg_24" fill="#fff" d="m0,0c-0.671,-0.182 -1.663,0.631 -1.497,2.208c0.151,1.423 0.792,2.728 1.055,3.558c0.366,1.149 0.429,2.27 0.14,1.65c-0.648,-1.392 -1.864,-4.08 -2.189,-5.934c-0.325,-1.853 0.166,-3.086 0.904,-3.539c0.92,-0.564 1.644,0.212 2.174,1.39c0.507,1.126 0.499,2.474 0.172,2.174c-0.275,-0.318 -0.432,-1.419 -0.759,-1.507"/>
    </g>
    <g stroke="null" id="svg_25" transform="matrix(5.64252 0 0 -5.2553 1294.25 607.088)">
     <path stroke="null" id="svg_26" fill="#fff" d="m0,0c0.918,-0.564 1.646,0.212 2.174,1.39c0.506,1.126 0.499,2.474 0.174,2.174c-0.277,-0.316 -0.434,-1.419 -0.761,-1.507c-0.671,-0.181 -1.665,0.631 -1.497,2.208c0.151,1.423 0.791,2.729 1.055,3.558c0.365,1.149 0.428,2.272 0.14,1.65c-0.65,-1.392 -1.864,-4.08 -2.189,-5.932c-0.325,-1.855 0.166,-3.088 0.904,-3.541"/>
    </g>
    <g stroke="null" id="svg_27" transform="matrix(5.64252 0 0 -5.2553 1360.45 477.213)">
     <path stroke="null" id="svg_28" fill="#fff" d="m0,0c0.442,1.39 0.518,2.747 0.168,1.996c-0.786,-1.684 -2.256,-4.936 -2.65,-7.181c-0.392,-2.243 0.203,-3.734 1.096,-4.283c1.111,-0.682 1.99,0.257 2.631,1.681c0.611,1.363 0.602,2.996 0.208,2.631c-0.333,-0.383 -0.524,-1.715 -0.92,-1.822c-0.81,-0.22 -2.013,0.763 -1.81,2.671c0.183,1.722 0.958,3.301 1.277,4.307"/>
    </g>
    <g stroke="null" id="svg_29" transform="matrix(5.64252 0 0 -5.2553 831.38 603.563)">
     <path stroke="null" id="svg_30" fill="#fff" d="m0,0c0.723,1.694 0.985,3.39 0.453,2.487c-1.191,-2.021 -3.434,-5.934 -4.2,-8.706c-0.767,-2.773 -0.199,-4.721 0.856,-5.52c1.316,-0.992 2.535,0.084 3.512,1.795c0.935,1.641 1.121,3.696 0.582,3.285c-0.465,-0.44 -0.867,-2.094 -1.377,-2.181c-1.048,-0.178 -2.44,1.204 -1.954,3.579c0.44,2.143 1.606,4.035 2.128,5.261"/>
    </g>
    <g stroke="null" id="svg_31" transform="matrix(5.64252 0 0 -5.2553 1402.63 691.827)">
     <path stroke="null" id="svg_32" fill="#fff" d="m0,0c0.554,0.491 5.372,3.298 6.259,3.868c0,0 0.907,1.6 0.635,1.77c-0.273,0.17 -2.032,-1.56 -3.126,-1.608c-1.095,-0.048 -2.594,0.822 -2.642,1.535c0.142,0.538 1.459,1.346 1.935,1.379c0.476,0.03 0.399,-1.142 0.558,-1.285c0.159,-0.141 0.792,0.809 0.872,1.205c0.078,0.395 0.013,2.049 -0.858,1.812c-1.379,-0.377 -3.459,-3.143 -3.696,-4.013c-0.239,-0.872 1.046,-1.631 1.984,-2.044c-0.08,-0.032 -0.78,-0.396 -1.223,-0.87c0,0 -0.476,-0.577 -0.698,-1.749"/>
    </g>
    <g stroke="null" id="svg_33" transform="matrix(5.64252 0 0 -5.2553 1309.93 710.099)">
     <path stroke="null" id="svg_34" fill="#fff" d="m0,0c0.554,0.491 5.372,3.296 6.259,3.868c0,0 0.909,1.6 0.635,1.77c-0.273,0.17 -2.032,-1.56 -3.126,-1.608c-1.095,-0.048 -2.594,0.822 -2.642,1.535c0.142,0.538 1.459,1.346 1.935,1.377c0.476,0.032 0.399,-1.139 0.558,-1.281c0.159,-0.143 0.792,0.807 0.872,1.203c0.078,0.395 0.011,2.049 -0.858,1.812c-1.379,-0.379 -3.459,-3.143 -3.696,-4.015c-0.239,-0.87 1.046,-1.629 1.982,-2.042c-0.078,-0.032 -0.778,-0.395 -1.221,-0.87c0,0 -0.476,-0.577 -0.698,-1.749"/>
    </g>
    <g stroke="null" id="svg_35" transform="matrix(5.64252 0 0 -5.2553 1101.12 445.696)">
     <path stroke="null" id="svg_36" fill="#fff" d="m0,0c0.432,-0.543 3.262,-4.432 5.479,-6.877c2.216,-2.447 6.015,-6.407 8.806,-9.121c0.54,-0.526 1.113,-1.096 1.696,-1.689c0.704,-5.846 1.518,-13.285 1.86,-16.361c0.337,-3.029 0.387,-6.854 0.394,-7.52c0.006,-0.667 0.45,-0.531 0.872,0.966c0.566,2.009 0.631,7.211 0.331,10.647c-0.186,2.122 -0.625,6.097 -1.05,9.762c1.648,-1.761 3.205,-3.508 4.254,-4.816c1.929,-2.401 3.552,-4.212 4.541,-6.793c0.7,-1.826 0.629,-3.279 0.916,-3.566c0.248,-0.248 0.522,1.937 0.216,4.056c-0.496,3.441 -1.176,4.9 -5.26,9.813c-1.558,1.878 -3.392,3.841 -5.185,5.676c-0.069,0.566 -0.132,1.09 -0.189,1.555c-0.142,1.149 -1.526,11.083 -1.635,12.196c-0.093,0.969 -0.256,2.11 -0.243,2.649c0.01,0.429 0.262,0.262 0.658,-0.176c0.394,-0.437 1.084,-1.202 1.201,-1.135c0.386,0.216 -0.044,1.499 -0.585,2.65c-0.539,1.149 -2.396,5.695 -2.769,5.875c-0.189,0.092 -1.302,-2.759 -1.359,-3.317c0.193,-0.344 0.683,-0.88 0.736,-2.434c0.015,-0.434 0.371,-4.52 0.818,-8.378c0.396,-3.409 0.886,-6.642 0.937,-7.016l0.002,-0.029c-1.849,1.824 -3.478,3.373 -4.466,4.346c-2.31,2.271 -7.412,7.66 -7.617,8.467c-0.046,0.255 0.35,0.098 1.078,-0.028c0.731,-0.127 1.381,-0.396 1.264,-0.008c-0.053,0.183 -0.333,0.635 -1.03,1.101c-0.698,0.467 -2.486,1.677 -3.816,2.533c-1.333,0.855 -1.993,1.572 -2.268,1.367c-0.136,-0.101 -0.015,-3.03 0.065,-3.395c0.333,-0.031 0.918,-0.455 1.348,-1"/>
    </g>
    <g stroke="null" id="svg_37" transform="matrix(5.64252 0 0 -5.2553 1121.67 418.015)">
     <path stroke="null" id="svg_38" fill="#fff" d="m0,0c0.547,0.13 3.139,0.059 4.08,-0.155c-0.394,-0.296 -3.046,-1.745 -3.57,-2.09c-0.521,-0.346 -0.653,-0.546 -0.391,-0.512c0.76,0.228 2.473,0.512 3.294,0.975c0.774,0.392 2.093,2.304 2.606,3.017c0.51,0.713 0.51,1.069 0.38,1.26c-0.524,0.308 -3.902,0.617 -5.531,0.18c-0.451,-0.331 -1.333,-2.094 -1.463,-2.461c-0.13,-0.369 0.048,-0.344 0.595,-0.214"/>
    </g>
    <g stroke="null" id="svg_39" transform="matrix(5.64252 0 0 -5.2553 1203.02 416.809)">
     <path stroke="null" id="svg_40" fill="#fff" d="m0,0c0.442,0.105 2.531,0.048 3.288,-0.124c-0.317,-0.239 -2.453,-1.407 -2.875,-1.687c-0.423,-0.277 -0.528,-0.439 -0.317,-0.411c0.613,0.182 1.994,0.411 2.655,0.786c0.623,0.316 1.686,1.857 2.099,2.43c0.411,0.576 0.411,0.862 0.306,1.015c-0.42,0.251 -3.143,0.499 -4.456,0.146c-0.364,-0.266 -1.073,-1.687 -1.178,-1.983c-0.107,-0.296 0.038,-0.277 0.478,-0.172"/>
    </g>
    <g stroke="null" id="svg_41" transform="matrix(5.64252 0 0 -5.2553 1269.14 415.953)">
     <path stroke="null" id="svg_42" fill="#fff" d="m0,0c0.44,0.105 2.529,0.048 3.286,-0.124c-0.315,-0.239 -2.452,-1.407 -2.875,-1.685c-0.421,-0.279 -0.526,-0.441 -0.315,-0.413c0.613,0.182 2.101,0.413 2.762,0.786c0.624,0.316 1.363,1.857 1.776,2.432c0.413,0.574 0.413,0.862 0.306,1.013c-0.42,0.251 -2.929,0.499 -4.24,0.148c-0.364,-0.268 -1.075,-1.689 -1.18,-1.985s0.038,-0.277 0.48,-0.172"/>
    </g>
    <g stroke="null" id="svg_43" transform="matrix(5.64252 0 0 -5.2553 1227.89 448.396)">
     <path stroke="null" id="svg_44" fill="#fff" d="m0,0c-0.694,-1.182 0.176,-2.136 0.493,-3.091c-0.428,-0.423 -1.086,-0.037 -1.306,0.334c-0.468,0.761 -0.311,2.312 -0.862,2.551c-0.141,-0.419 -0.233,-0.884 -0.233,-0.884s0.419,-1.061 0.314,-1.763c-0.067,-0.424 -0.413,-0.919 -0.87,-0.929c-1.218,-0.032 -0.618,1.918 -1.088,3.023c-0.096,-0.27 -0.165,-0.56 -0.277,-0.813c0.086,-0.288 0.133,-0.692 0.147,-0.925c0.028,-0.463 -0.006,-0.962 0.067,-1.357c0.101,-0.559 0.388,-0.93 0.826,-0.966c0.91,-0.078 1.325,0.719 1.462,1.373c0.157,-0.667 1.36,-1.402 1.952,-0.583c0.784,1.08 0.157,2.005 -0.245,3.021c-0.29,0.751 -0.206,1.244 -0.38,1.009"/>
    </g>
    <g stroke="null" id="svg_45" transform="matrix(5.64252 0 0 -5.2553 1035 431.922)">
     <path stroke="null" id="svg_46" fill="#fff" d="m0,0c0.063,-0.486 0.294,-0.818 0.671,-0.868c0.778,-0.107 1.172,0.562 1.319,1.118c0.103,-0.581 1.109,-1.265 1.656,-0.587c0.723,0.897 0.222,1.721 -0.08,2.614c-0.216,0.662 -0.123,1.082 -0.283,0.887c-0.65,-0.986 0.059,-1.849 0.29,-2.686c-0.388,-0.344 -0.937,0.017 -1.111,0.344c-0.37,0.677 -0.168,2.006 -0.63,2.237c-0.14,-0.356 -0.239,-0.751 -0.239,-0.751s0.313,-0.933 0.191,-1.532c-0.075,-0.363 -0.394,-0.774 -0.79,-0.763c-1.049,0.025 -0.447,1.679 -0.805,2.65c-0.093,-0.227 -0.166,-0.476 -0.275,-0.686c0.063,-0.254 0.086,-0.602 0.086,-0.805c0.008,-0.4 -0.044,-0.826 0,-1.172"/>
    </g>
    <g stroke="null" id="svg_47" transform="matrix(5.64252 0 0 -5.2553 1175.05 672.605)">
     <path stroke="null" id="svg_48" fill="#fff" d="m0,0c0.117,0.201 0.375,0.753 0.31,1.13s-0.492,1.95 -1.321,2.344c-0.824,0.394 -1.448,-0.432 -1.843,-1.581l-0.274,0.007c-0.065,-0.17 -0.147,-0.424 -0.212,-0.883c-0.092,-0.663 -0.266,-1.09 -1.317,-2.122c-0.884,-0.864 -3.748,-2.939 -5.604,-3.914c-1.858,-0.977 -3.195,-1.82 -3.688,-2.076c-0.491,-0.252 -0.348,-0.346 0.143,-0.187c0.49,0.158 2.956,1.017 3.939,1.455c0.981,0.441 2.181,1.166 3.627,2.181c1.608,1.128 2.569,2.256 2.892,3.256c0.23,0.713 0.289,0.998 0.289,0.998s0.604,-0.386 1.629,-0.639c1.021,-0.254 1.311,-0.172 1.43,0.031m-1.386,2.235c0.455,-0.187 0.732,-0.723 0.814,-1.048c-0.522,-0.013 -1.483,0.274 -1.892,0.474c0.246,0.515 0.674,0.738 1.078,0.574"/>
    </g>
    <g stroke="null" id="svg_49" transform="matrix(5.64252 0 0 -5.2553 1113.64 678.418)">
     <path stroke="null" id="svg_50" fill="#fff" d="m0,0c-1.426,0.214 -5.019,0.805 -5.898,3.061c0.738,1.164 4.137,2.638 8.395,4.017c4.258,1.376 8.707,3.162 9.903,4.024c0.262,0.096 0.769,0.067 0.769,0.067c0.214,0.667 1.283,3.009 1.35,3.499c-1.19,-0.073 -8.525,-0.656 -11.783,-0.845c-3.26,-0.19 -9.538,-0.144 -11.63,-0.119c1.283,0.998 4.328,2.946 8.68,4.608c0.564,0.216 1.086,0.411 1.573,0.587c0.362,-0.698 0.631,-1.388 0.687,-1.989c0.277,0.308 0.485,1.329 0.415,2.377c2.537,0.876 3.844,1.166 4.408,1.331c0.356,0.499 0.987,2.517 1.081,3.984c-0.379,0.747 -1.566,1.677 -2.622,2.476c-1.455,1.099 -3.024,2.057 -4.59,1.638c-2.141,-0.568 -2.57,-4.822 -2.071,-5.724c0.159,-0.285 0.536,-0.79 0.981,-1.413c-1.564,-0.665 -3.2,-1.447 -4.642,-2.269c-3.212,-1.83 -6.798,-3.832 -7.844,-5.757l-0.3,-0.158c-0.084,-0.182 -0.746,-3.161 -0.842,-3.482c0.668,0.025 5.656,0.015 9.13,0.132c3.472,0.12 6.508,0.239 7.697,0.239c-1.761,-0.451 -6.376,-2.306 -7.703,-3.397c-1.327,-1.094 -2.161,-2.757 -2.183,-5.608c-1.237,0.524 -3.536,1.721 -5.495,4.587c-2.184,3.194 -1.732,6.479 -2.606,10.79c-1.27,6.256 -3.982,11.538 -5.671,13.154c-0.569,-2.208 -0.642,-3.872 -0.642,-3.872s2.116,-5.06 3.187,-8.29c1.071,-3.231 1.986,-6.414 1.941,-7.127c-0.882,-2.092 -6.103,-6.474 -10.454,-9.039c-4.126,-2.432 -7.761,-2.694 -9.049,-0.962c-0.253,0.338 -0.425,0.738 -0.522,1.191c0.56,0.283 1.122,0.568 1.698,0.853c3.71,1.828 10.299,5.676 11.843,7.695c1.666,2.447 1.643,5.892 0.666,7.864c-0.973,1.971 -2.499,4.253 -2.618,5.06c-0.093,0.381 0.991,-0.155 1.631,-0.191c0.31,0.025 0.155,0.476 -0.51,1.189c-0.532,0.568 -2.589,2.411 -3.375,3.13c-0.197,0.183 -0.344,0.109 -0.384,-0.084c-0.153,-0.736 -0.466,-2.312 -0.587,-3.09l0.084,-0.392c0.226,-0.145 0.486,-0.308 0.612,-0.715c0.178,-0.577 0.801,-2.187 1.822,-4.219c1.023,-2.031 2.501,-4.273 2.646,-5.405c-1.202,-1.658 -7.263,-5.189 -13.167,-8.099c0.365,1.224 0.941,2.608 1.705,4.145c0.217,0.26 0.415,0.581 0.599,0.943c0.589,1.164 0.646,2.587 0.289,2.286c-0.306,-0.319 -0.526,-1.474 -0.876,-1.552c-0.717,-0.159 -1.723,0.746 -1.47,2.401c0.229,1.493 0.967,2.841 1.286,3.704c0.442,1.194 0.563,2.374 0.228,1.732c-0.753,-1.434 -2.166,-4.212 -2.6,-6.153c-0.432,-1.938 0.027,-3.263 0.784,-3.776c0.283,-0.195 0.554,-0.256 0.812,-0.218c-0.518,-1.066 -1.158,-2.374 -1.625,-3.934c-2.374,-1.149 -4.684,-2.176 -6.596,-2.916c-6.873,-2.661 -11.771,-4.229 -15.197,-5.393l-0.134,-0.065c0.252,0.881 0.218,1.633 -0.052,1.407c-0.306,-0.321 -0.525,-1.476 -0.875,-1.552c-0.717,-0.159 -1.723,0.745 -1.471,2.401c0.23,1.493 0.968,2.839 1.287,3.703c0.44,1.193 0.562,2.375 0.228,1.732c-0.754,-1.434 -2.166,-4.212 -2.6,-6.152c-0.433,-1.939 0.026,-3.264 0.782,-3.778c0.942,-0.64 1.745,0.145 2.361,1.359l0.216,0.499c0.214,0 0.575,0.054 1.114,0.184c1.57,0.382 5.495,0.998 10.892,1.759c3.996,0.562 6.755,1.749 9.422,3.07c-0.012,-0.319 -0.015,-0.644 -0.002,-0.979c0.145,-3.961 2.545,-5.079 5.827,-4.338c3.166,0.719 7.581,3.859 10.227,5.977c2.759,2.208 4.351,4.181 4.757,4.869c0.736,1.687 0.938,3.551 0.988,4.43c0.241,-2.422 0.436,-5.774 2.554,-8.649c1.95,-2.646 5.946,-6.338 13.462,-6.439c0.025,0.967 -0.333,3.986 -0.333,3.986m-0.497,24.544c1.076,1.306 3.372,0.452 5.095,-1.204c-0.883,-0.224 -2.082,-0.623 -3.405,-1.134c-0.786,1.025 -1.663,2.013 -1.69,2.338"/>
    </g>
    <g stroke="null" id="svg_51" transform="matrix(5.64252 0 0 -5.2553 872.407 455.33)">
     <path stroke="null" id="svg_52" fill="#fff" d="m0,0c0.488,0.241 1.981,0.967 3.59,1.981c1.606,1.007 3.115,2.227 3.853,3.038c0.283,0.311 0.535,0.554 0.696,0.843c0.482,-0.216 0.814,-0.44 1.021,-0.528c0.311,-0.13 0.726,-0.317 0.996,0.641c0.269,0.957 -0.088,1.575 -0.614,2.313c-0.445,0.619 -1.151,1.549 -1.724,1.78c-0.486,0.197 -0.717,-0.977 -0.643,-0.948l0.325,0l0.063,-0.033c-0.669,-0.365 -1.187,-1.501 -1.239,-1.9c-0.053,-0.434 0.023,-0.754 0.983,-1.021l0.386,-0.123c-0.801,-1.026 -2.294,-2.087 -3.311,-2.839c-1.443,-1.07 -3.491,-2.407 -4.074,-2.793c-0.583,-0.384 -0.534,-0.505 -0.308,-0.411m8.672,7.538l0.052,0.513c0.675,-0.832 1.176,-1.822 1.126,-1.962c-0.31,-0.027 -0.696,0.283 -1.371,0.595c0.075,0.248 0.138,0.522 0.193,0.854m-1.938,-0.001c-0.004,0.156 0.256,0.59 0.806,0.827c0.549,0.239 0.792,-0.428 0.84,-1.24l-0.163,-0.325l-0.495,0.185c-0.524,0.166 -0.878,0.26 -0.988,0.553"/>
    </g>
    <g stroke="null" id="svg_53" transform="matrix(5.64252 0 0 -5.2553 1075.48 537.641)">
     <path stroke="null" id="svg_54" fill="#fff" d="m0,0c0.792,0.566 2.969,2.266 4.204,3.38c0.859,0.774 1.868,1.914 2.553,2.878c0.43,-0.301 0.831,-0.568 1.196,-0.8c0.704,-0.445 0.987,-1.105 0.987,-1.105c0.13,0.216 0.736,1.398 0.499,1.973c-0.142,0.188 -1.008,0.735 -1.893,1.321c0.449,1.09 1.067,2.975 0.182,3.635c-0.757,0.56 -2.034,-0.367 -2.625,-1.57c-0.488,-0.996 -0.551,-1.841 0.38,-2.533c0.262,-0.195 0.513,-0.379 0.759,-0.554c-0.939,-1.111 -2.669,-2.755 -3.9,-3.874c-1.529,-1.384 -2.975,-2.741 -3.227,-3.065l-0.073,-0.126c-0.334,1.006 -0.243,1.627 -0.491,1.293c-1.071,-1.817 0.271,-3.289 0.759,-4.759c-0.66,-0.648 -1.671,-0.053 -2.01,0.514c-0.722,1.174 -0.481,3.558 -1.326,3.927c-0.218,-0.644 -0.36,-1.361 -0.36,-1.361s0.643,-1.633 0.48,-2.711c-0.101,-0.652 -0.635,-1.415 -1.336,-1.428c-1.876,-0.052 -0.951,2.95 -1.675,4.65c-0.147,-0.417 -0.252,-0.863 -0.428,-1.249c0.133,-0.447 0.206,-1.067 0.225,-1.426c0.048,-0.713 -0.006,-1.478 0.105,-2.09c0.155,-0.86 0.597,-1.432 1.272,-1.485c1.399,-0.123 2.038,1.107 2.25,2.11c0.241,-1.026 2.094,-2.154 3.005,-0.896c1.207,1.663 0.241,3.087 -0.376,4.651l-0.073,0.203c0.086,-0.033 0.409,0.12 0.937,0.497m5.472,9.364c0.464,0.931 1.441,1.01 1.734,0.522c0.233,-0.388 0.252,-1.145 -0.098,-1.944c-0.862,0.585 -1.631,1.158 -1.636,1.422"/>
    </g>
    <g stroke="null" id="svg_55" transform="matrix(5.64252 0 0 -5.2553 903.153 506.528)">
     <path stroke="null" id="svg_56" fill="#fff" d="m0,0c-1.648,0.126 -2.535,1.759 -3.042,4.118c-0.508,2.359 -0.197,5.47 -0.059,6.267c0.138,0.796 -0.639,0.385 -0.941,-1.548c-0.3,-1.931 -0.602,-5.019 0.461,-8.252c1.061,-3.229 2.87,-4.434 4.455,-4.021c1.585,0.411 2.98,4.434 3.472,6.239c0.491,1.806 2.688,9.171 3.932,9.567c0.174,-0.903 -0.967,-3.168 -1.332,-6.573c-0.363,-3.405 0.269,-7.871 4.265,-8.663c3.996,-0.793 6.707,2.011 7.69,3.96c0.984,1.946 1.443,3.992 1.554,5.02c0.128,-2.613 1.776,-6.693 4.977,-7.856c3.093,-1.124 5.456,-0.095 6.5,1.362c0.927,1.294 1.682,3.959 1.747,6.003c0.063,2.042 -1.569,5.779 -1.934,6.969c-0.366,1.187 -0.555,2.011 -0.587,2.422c-0.031,0.411 0.826,-0.476 1.365,-0.65c0.365,-0.079 0.237,0.776 -0.207,1.363c-0.443,0.585 -2.841,4.518 -3.009,4.244c-0.103,-0.164 -1.063,-3.057 -1.126,-3.5c0.38,-0.27 0.82,-1.014 0.853,-1.727c0.03,-0.713 0.665,-3.848 1.252,-5.59s1.728,-5.084 1.808,-6.003c-1.141,-0.87 -3.711,-1.977 -6.152,-0.855c-2.441,1.126 -3.22,2.757 -3.489,5.671c-0.172,1.862 -0.189,5.292 -0.803,8.16c-0.346,1.621 -1.075,3.269 -1.941,4.144c-0.204,-0.537 -1.124,-3.848 -1.124,-3.848c0.3,-0.95 1.233,-4.149 1.203,-6.921c-0.033,-2.77 -0.235,-5.481 -3.107,-7.349c-2.87,-1.868 -6.959,-1.124 -8.022,1.791c-1.063,2.914 1.3,9.47 1.269,11.196c-0.032,1.726 -0.319,1.965 -0.984,1.679c-0.666,-0.285 -2.031,-1.949 -3.203,-4.656c-1.174,-2.709 -1.695,-5.416 -2.363,-7.697c-0.665,-2.281 -1.73,-4.592 -3.378,-4.466"/>
    </g>
    <g stroke="null" id="svg_57" transform="matrix(5.64252 0 0 -5.2553 633.155 453.431)">
     <path stroke="null" id="svg_58" fill="#fff" d="m0,0c2.028,0.159 3.742,1.822 4.185,2.264c0.444,0.445 0.683,1.108 0.365,0.856c-2.346,-2.265 -5.485,-2.329 -5.661,-1.948c0.08,0.38 0.906,0.998 2.111,1.868c0.732,0.529 1.384,1.025 1.872,1.728l0.133,-0.025c0.893,-0.212 1.924,-0.634 2.239,-0.296c0.513,0.547 0.581,1.443 0.025,2.409c-0.47,0.82 -1.566,1.583 -2.518,2.134c-0.95,0.548 -1.134,-0.327 -1.256,-0.639c-0.117,-0.291 -0.069,-0.539 0.132,-0.545c-0.306,-0.451 -0.524,-1.032 -0.604,-1.512c-0.052,-0.31 -0.01,-0.564 0.107,-0.773c0.034,-0.059 0.21,-0.292 0.543,-0.43l0.413,-0.139c-0.711,-0.71 -1.53,-1.266 -1.96,-1.547c-0.776,-0.507 -1.696,-1.394 -1.981,-2.311c-0.286,-0.92 -0.175,-1.253 1.855,-1.094m3.585,6.47l0.078,0.468l0,0.3c0.643,-0.506 1.671,-1.464 1.608,-2.038c-0.407,0.1 -1.183,0.277 -1.92,0.482c0.094,0.239 0.171,0.501 0.234,0.788m-1.906,-0.146c-0.473,0.408 -0.012,0.815 0.407,1.077c0.541,0.338 0.858,0.059 1.135,-0.828c-0.097,-0.254 -0.233,-0.501 -0.393,-0.738c-0.421,0.141 -1.014,0.367 -1.149,0.489"/>
    </g>
    <g stroke="null" id="svg_59" transform="matrix(5.64252 0 0 -5.2553 667.485 583.617)">
     <path stroke="null" id="svg_60" fill="#fff" d="m0,0c-0.583,-0.547 -0.809,-2.327 -0.69,-2.434c0.118,-0.107 1.94,-0.772 2.225,-0.916l0.13,0.536c0.868,-0.843 1.83,-5.049 2.044,-5.061c0.214,-0.011 0.524,0.476 0.727,1.593c0.187,1.036 0.374,2.586 0.569,3.848c0.182,1.155 0.465,1.816 1.107,1.948c0.643,0.13 1.119,-0.761 1.285,-1.367c0,0 0.451,1.165 0.547,1.889c-0.107,0.381 -1.107,1.817 -1.927,1.342c-0.821,-0.476 -1.335,-2.491 -1.501,-3.751c-0.167,-1.258 -0.295,-2.818 -0.497,-3.068c-0.212,1.074 -0.891,2.996 -1.711,4.076c-0.922,1.21 -2,1.654 -2.308,1.365"/>
    </g>
    <g stroke="null" id="svg_61" transform="matrix(5.64252 0 0 -5.2553 623.63 572.318)">
     <path stroke="null" id="svg_62" fill="#fff" d="m0,0c0.761,0.226 2.474,0.51 3.294,0.973c0.773,0.392 2.092,2.304 2.604,3.017c0.511,0.713 0.512,1.071 0.382,1.26c-0.523,0.31 -3.902,0.617 -5.532,0.18c-0.45,-0.329 -1.331,-2.092 -1.461,-2.461c-0.132,-0.367 0.048,-0.344 0.594,-0.214c0.547,0.132 3.14,0.061 4.078,-0.153c-0.391,-0.298 -3.043,-1.747 -3.567,-2.092c-0.522,-0.344 -0.654,-0.546 -0.392,-0.51"/>
    </g>
    <g stroke="null" id="svg_63" transform="matrix(5.64252 0 0 -5.2553 1510.09 625.959)">
     <path stroke="null" id="svg_64" fill="#fff" d="m0,0c-0.078,2.137 -1.046,5.418 -4.726,10.452c-1.27,1.738 -3.057,4 -4.942,6.317c-0.052,0.79 -0.104,1.512 -0.151,2.132c-0.247,3.189 -1.084,9.695 -1.444,13.541c-0.088,0.97 -0.095,2.002 -0.082,2.541c0.013,0.428 0.298,0.371 0.69,-0.069c0.392,-0.439 0.996,-1.08 1.122,-1.036c0.268,0.1 0.035,1.071 -0.5,2.222c-0.534,1.153 -2.553,5.816 -2.924,5.997c-0.191,0.092 -1.143,-2.646 -1.202,-3.206c0.189,-0.344 0.677,-0.879 0.724,-2.436c0.05,-1.556 0.918,-10.746 1.417,-16.537l0.027,-0.323c-2.818,3.403 -5.472,6.506 -6.564,7.764c-0.189,0.218 -0.397,0.466 -0.621,0.732c-0.178,1.549 -0.342,3.025 -0.455,4.244c-0.092,0.968 -0.098,2.002 -0.082,2.541c0.009,0.427 0.296,0.369 0.688,-0.071c0.394,-0.439 0.996,-1.08 1.122,-1.034c0.268,0.098 0.035,1.069 -0.501,2.222c-0.533,1.153 -2.638,5.923 -3.011,6.104c-0.189,0.092 -1.185,-2.864 -1.244,-3.42c0.191,-0.346 0.678,-0.881 0.726,-2.438c0.019,-0.661 0.178,-2.665 0.39,-5.194c-1.868,2.401 -3.697,4.915 -3.827,5.426c-0.046,0.252 0.349,0.097 1.08,-0.031c0.728,-0.126 1.411,-0.363 1.294,0.027c-0.055,0.181 -0.333,0.633 -1.03,1.101c-0.698,0.467 -2.486,1.677 -3.816,2.531c-1.333,0.855 -1.993,1.574 -2.268,1.369c-0.136,-0.101 -0.015,-3.032 0.063,-3.395c0.335,-0.033 0.954,-0.302 1.348,-0.872c0.398,-0.57 2.946,-4.434 4.961,-7.047c0.58,-0.752 1.488,-1.918 2.551,-3.264c0.208,-2.407 0.426,-4.894 0.606,-6.972c0.409,-4.74 1.879,-17.241 1.893,-21.304c-1.085,-1.101 -3.304,-2.637 -5.587,-2.669c-2.283,-0.031 -3.535,0.619 -4.455,2.455c-0.284,0.569 -0.548,1.141 -0.81,1.659c-0.622,1.231 -2.01,1.922 -3.348,1.583l-0.204,-0.059l-0.364,-0.189c-0.906,-0.513 -1.843,-1.373 -2.759,-2.707c-1.584,-2.314 -2.596,-4.824 -3.768,-6.998c-1.221,-2.264 -2.158,-3.783 -4.3,-3.42c-1.508,0.256 -2.653,1.655 -3.359,3.376c1.983,1.484 3.423,3.42 4.476,6.103c1.371,3.487 1.86,7.418 1.738,11.838c-0.117,4.16 -1.87,13.947 -2.333,17.698c-0.462,3.753 -1.126,6.833 -1.049,7.634c0.072,0.773 1.21,-1.047 1.793,-1.183c0.298,0.072 0.138,1.233 -0.428,2.214c-0.384,0.667 -1.6,3.701 -2.396,5.164c-0.374,0.692 -0.464,1.093 -0.638,1.175c-0.172,0.085 -1.497,-2.976 -1.337,-3.309c0.392,-0.606 0.66,-0.895 0.742,-1.981c0.084,-1.086 0.992,-9.058 1.786,-14.929c0.598,-4.43 1.919,-12.477 2.089,-18.425c0.056,-1.941 -0.2,-3.334 -0.422,-4.112c-0.57,-1.192 -1.499,-2.516 -4.763,-5.029c-0.504,3.551 0.044,6.436 -0.434,6.703c-0.539,-0.063 -0.625,-1.718 -0.686,-3.76c-0.03,-0.943 0.008,-2.249 0.172,-3.652c-4.009,-2.898 -9.305,-5.537 -11.792,-6.946c-1.459,-0.828 -0.933,-1.021 0.302,-0.608c1.235,0.415 8.022,2.34 11.645,4.401l0.39,0.234c0.184,-0.691 0.407,-1.36 0.681,-1.977c1.219,-2.74 2.961,-4.367 4.848,-4.208c1.587,0.132 2.738,1.969 3.742,4.16c1.015,2.218 2.73,6.43 4.412,7.997c0.646,0.604 1.314,1.082 1.964,1.369c0,0 1.149,0.415 2.206,-0.332c0.379,-0.27 0.662,-0.654 0.841,-1.084c0.417,-0.987 0.91,-2.243 1.918,-3.295c1.776,-1.85 4.632,-1.468 6.774,-0.392c2.139,1.077 3.231,2.757 3.707,4.753c0.812,3.415 0.682,6.914 0.527,10.022c-0.179,3.547 -0.703,7.172 -1.001,11.013c-0.096,1.235 -0.283,2.953 -0.498,4.816c2.086,-2.604 4.252,-5.247 5.566,-6.692c0.453,-0.499 0.931,-1.053 1.422,-1.638c0.392,-5.814 0.769,-13.089 0.968,-16.142c0.197,-3.042 0.07,-6.866 0.047,-7.531c-0.024,-0.665 0.318,-0.551 0.809,0.925c0.658,1.981 1.071,7.176 0.927,10.621c-0.086,2.047 -0.275,5.779 -0.479,9.309c1.619,-2.081 3.156,-4.182 4.156,-5.6c1.778,-2.518 3.411,-5.512 3.982,-7.38c0.57,-1.87 0.633,-2.424 0.744,-2.757s0.602,1.031 0.524,3.168"/>
    </g>
   </g>
   <path stroke="null" fill="#fff" d="m1340.67607,999.76271c-0.90607,-2.61119 -3.6809,-4.52675 -6.99943,-4.52675s-6.08779,1.91555 -6.9995,4.52675l-31.42392,0c-0.31711,-3.51189 -0.00773,-7.04097 0.97977,-10.47854l64.87566,-0.03969l1.8065,3.06722c1.63099,2.76504 3.69234,5.26215 6.082,7.4514l-28.32108,-0.00039zm42.94813,-30.37026l-77.9611,0c5.99146,-4.3557 9.13409,-10.71278 8.29051,-17.14309c-0.53797,-4.0536 -4.52463,-7.08089 -9.38361,-7.49132l-2.4408,0c-5.91213,0.58148 -10.19937,4.87445 -9.57596,9.58905l0.23785,1.81299l0.28876,2.78784c0.31719,3.50053 0.01159,7.01809 -0.96833,10.4443l-576.26479,0c8.55703,12.54234 24.15852,20.23335 41.00606,20.22168l525.85118,-0.32513c-6.0141,4.36138 -9.16808,10.7299 -8.3191,17.17189c0.62295,4.71476 5.9122,8.07311 11.82472,7.49124c5.90649,-0.58148 10.19319,-4.87445 9.57596,-9.59528l-0.23785,-1.80723l30.90325,0c0.54361,3.03874 3.55638,5.37048 7.226,5.37048s6.68231,-2.33174 7.23164,-5.37048l31.4355,0l0,-0.07393c6.56343,4.69211 14.90469,7.38875 23.72823,7.38875c8.3021,0 15.02984,-5.80946 15.02984,-12.98125l0,-3.75134c0,-13.10654 -12.29981,-23.73994 -27.47719,-23.73994" id="sword"/>
  </g>
 </g>
</svg>